<svg xmlns="http://www.w3.org/2000/svg" width="216" height="46" fill="none" viewBox="0 0 216 46"><g clip-path="url(#a)"><path fill="#31A1A8" d="m15.66 33-1.584-6.048H7.2L5.652 33H.18L6.984 7.872h7.632L21.42 33zM10.8 13.092h-.288l-2.448 9.504h5.184zm21.37 20.34q-3.096 0-5.4-.936-2.268-.936-3.42-2.556l2.988-2.772a8 8 0 0 0 2.52 1.872q1.476.648 3.348.648 1.584 0 2.484-.468.9-.504.9-1.512 0-.792-.612-1.08-.612-.324-1.692-.504l-2.988-.468q-1.26-.18-2.34-.54a6.4 6.4 0 0 1-1.872-1.044 4.8 4.8 0 0 1-1.26-1.584q-.468-.936-.468-2.268 0-2.916 2.232-4.572t6.264-1.656q2.736 0 4.644.756 1.944.72 3.096 2.088L37.93 19.86q-.828-.9-2.124-1.512t-3.132-.612q-3.096 0-3.096 1.872 0 .828.612 1.152.612.288 1.692.468l2.952.468q1.26.18 2.34.576 1.08.36 1.872 1.008a4.6 4.6 0 0 1 1.296 1.584q.468.936.468 2.268 0 2.916-2.268 4.608-2.232 1.692-6.372 1.692M55.412 33q-2.88 0-4.284-1.512t-1.404-3.852v-9.072h-5.04v-4.14h3.276q1.188 0 1.692-.468t.504-1.728V7.872h4.896v6.552h7.236v4.14h-7.236V28.86h7.236V33zm12.01-4.14h4.284V18.564h-4.284v-4.14h9.612v5.256h.252q.252-1.008.684-1.944a6.6 6.6 0 0 1 1.152-1.692q.72-.756 1.728-1.188t2.376-.432h1.764v4.896h-3.96q-1.98 0-2.988 1.188-1.008 1.152-1.008 2.844v5.508h6.12V33H67.422zm29.722 4.572q-2.16 0-3.888-.648a8.3 8.3 0 0 1-2.952-1.944q-1.188-1.26-1.836-3.06t-.648-4.068.648-4.068 1.836-3.06a7.94 7.94 0 0 1 2.952-1.908q1.728-.684 3.888-.684t3.888.684q1.728.648 2.916 1.908 1.224 1.26 1.872 3.06t.648 4.068-.648 4.068-1.872 3.06q-1.188 1.26-2.916 1.944-1.728.648-3.888.648m0-3.96q1.8 0 2.808-1.116t1.008-3.168v-2.952q0-2.052-1.008-3.168t-2.808-1.116-2.808 1.116-1.008 3.168v2.952q0 2.052 1.008 3.168t2.808 1.116M110.666 33V7.872h9.72q1.836 0 3.276.576 1.44.54 2.412 1.584 1.008 1.044 1.512 2.52t.504 3.312-.504 3.312-1.512 2.52q-.972 1.044-2.412 1.62-1.44.54-3.276.54h-4.284V33zm5.436-13.5h2.916q1.908 0 2.628-.72.756-.72.756-2.376v-1.08q0-1.656-.756-2.376-.72-.72-2.628-.72h-2.916zM147.048 33q-1.656 0-2.664-.828-1.008-.864-1.188-2.448h-.18q-.504 1.836-2.016 2.772-1.476.936-3.636.936-2.7 0-4.356-1.44-1.62-1.476-1.62-4.104 0-2.916 2.124-4.32t6.228-1.404h2.988v-.936q0-1.656-.792-2.484-.756-.864-2.592-.864-1.692 0-2.736.648a6.3 6.3 0 0 0-1.8 1.692l-2.916-2.592q.936-1.584 2.916-2.592 2.016-1.044 5.148-1.044 3.816 0 5.94 1.764 2.16 1.728 2.16 5.256v8.136h2.052V33zm-7.668-3.06q1.404 0 2.376-.684t.972-1.98v-2.232h-2.844q-3.276 0-3.276 2.196v.72q0 .972.756 1.476t2.016.504m13.846-15.516h5.328v3.384h.252q.684-1.656 1.98-2.736t3.528-1.08q1.548 0 2.808.576a5.56 5.56 0 0 1 2.196 1.764q.936 1.188 1.44 3.024.54 1.836.54 4.356t-.54 4.356q-.504 1.836-1.44 3.024a5.56 5.56 0 0 1-2.196 1.764q-1.26.576-2.808.576-2.232 0-3.528-1.044-1.296-1.08-1.98-2.772h-.252V40.2h-5.328zm8.784 14.868q1.8 0 2.772-1.08.972-1.116.972-3.06v-2.88q0-1.944-.972-3.024-.972-1.116-2.772-1.116-1.404 0-2.448.684-1.008.684-1.008 2.16v5.472q0 1.476 1.008 2.16 1.044.684 2.448.684m21.982 4.14q-4.68 0-7.092-2.592t-2.412-7.056q0-2.268.612-4.068.648-1.836 1.8-3.096a7.5 7.5 0 0 1 2.844-1.944q1.692-.684 3.78-.684t3.744.684q1.656.648 2.808 1.872t1.764 2.988q.648 1.728.648 3.888v1.584H179.78v.324q0 1.8 1.116 2.916 1.116 1.08 3.276 1.08 1.656 0 2.844-.612a7 7 0 0 0 2.052-1.692l2.88 3.132q-1.08 1.332-3.024 2.304t-4.932.972m-.432-15.624q-1.728 0-2.772 1.08-1.008 1.044-1.008 2.844v.288h7.488v-.288q0-1.836-1.008-2.88-.972-1.044-2.7-1.044m13.377 11.052h4.284V18.564h-4.284v-4.14h9.612v5.256h.252q.252-1.008.684-1.944a6.6 6.6 0 0 1 1.152-1.692q.72-.756 1.728-1.188t2.376-.432h1.764v4.896h-3.96q-1.98 0-2.988 1.188-1.008 1.152-1.008 2.844v5.508h6.12V33h-15.732z"/></g><defs><clipPath id="a"><path fill="#fff" d="M0 0h216v46H0z"/></clipPath></defs></svg>